<svg width="14" height="14" viewBox="0 0 14 14" fill="none" xmlns="http://www.w3.org/2000/svg">
<path d="M7.58332 6.76663V4.66663C7.58332 4.50135 7.52742 4.36281 7.41562 4.251C7.30381 4.1392 7.16527 4.08329 6.99999 4.08329C6.83471 4.08329 6.69617 4.1392 6.58436 4.251C6.47256 4.36281 6.41666 4.50135 6.41666 4.66663V6.98538C6.41666 7.06315 6.43124 7.1385 6.46041 7.21142C6.48957 7.28433 6.53332 7.34996 6.59166 7.40829L8.51666 9.33329C8.6236 9.44024 8.75971 9.49371 8.92499 9.49371C9.09027 9.49371 9.22638 9.44024 9.33332 9.33329C9.44027 9.22635 9.49374 9.09024 9.49374 8.92496C9.49374 8.75968 9.44027 8.62357 9.33332 8.51663L7.58332 6.76663ZM6.99999 12.8333C6.19305 12.8333 5.43471 12.6802 4.72499 12.3739C4.01527 12.0677 3.39791 11.652 2.87291 11.127C2.34791 10.602 1.93228 9.98468 1.62603 9.27496C1.31978 8.56524 1.16666 7.8069 1.16666 6.99996C1.16666 6.19302 1.31978 5.43468 1.62603 4.72496C1.93228 4.01524 2.34791 3.39788 2.87291 2.87288C3.39791 2.34788 4.01527 1.93225 4.72499 1.626C5.43471 1.31975 6.19305 1.16663 6.99999 1.16663C7.80693 1.16663 8.56527 1.31975 9.27499 1.626C9.98471 1.93225 10.6021 2.34788 11.1271 2.87288C11.6521 3.39788 12.0677 4.01524 12.3739 4.72496C12.6802 5.43468 12.8333 6.19302 12.8333 6.99996C12.8333 7.8069 12.6802 8.56524 12.3739 9.27496C12.0677 9.98468 11.6521 10.602 11.1271 11.127C10.6021 11.652 9.98471 12.0677 9.27499 12.3739C8.56527 12.6802 7.80693 12.8333 6.99999 12.8333ZM6.99999 11.6666C8.29305 11.6666 9.39409 11.2121 10.3031 10.3031C11.2121 9.39406 11.6667 8.29302 11.6667 6.99996C11.6667 5.7069 11.2121 4.60586 10.3031 3.69683C9.39409 2.78781 8.29305 2.33329 6.99999 2.33329C5.70693 2.33329 4.60589 2.78781 3.69686 3.69683C2.78784 4.60586 2.33332 5.7069 2.33332 6.99996C2.33332 8.29302 2.78784 9.39406 3.69686 10.3031C4.60589 11.2121 5.70693 11.6666 6.99999 11.6666Z" fill="#AAAAAA"/>
</svg>
