<?xml version="1.0" encoding="UTF-8"?>
<svg version="1.1" xmlns="http://www.w3.org/2000/svg" width="97" height="96">
<path d="M0 0 C32.01 0 64.02 0 97 0 C97 31.68 97 63.36 97 96 C64.99 96 32.98 96 0 96 C0 64.32 0 32.64 0 0 Z " fill="#FDFDFD" transform="translate(0,0)"/>
<path d="M0 0 C32.01 0 64.02 0 97 0 C97 31.68 97 63.36 97 96 C64.99 96 32.98 96 0 96 C0 64.32 0 32.64 0 0 Z M17.25 17.5625 C8.69995608 28.0951628 5.11654176 39.60356053 6 53 C7.85587784 64.71979549 12.80498199 75.75340593 22.58203125 82.8828125 C34.05562795 90.38538326 44.32416788 93.69056194 58.1328125 91.50390625 C70.15224651 88.78339497 79.78560012 83.11406181 86.6875 72.8125 C93.61028218 61.21216229 95.67966414 50.41114138 93.52734375 37.0703125 C91.925071 30.91067715 88.79146809 26.04879298 85 21 C83.9171875 19.453125 83.9171875 19.453125 82.8125 17.875 C75.86548355 9.88482134 64.5094702 4.57398134 54.1015625 3.65625 C39.72141331 3.12629411 27.45037305 6.92855405 17.25 17.5625 Z " fill="#EEEEEE" transform="translate(0,0)"/>
<path d="M0 0 C10.26630807 6.8490941 16.40560483 17.06265902 19.3125 28.875 C20.60882856 43.52652749 17.56594427 55.17054746 8.3125 66.875 C-0.84106024 76.1872008 -12.45112606 80.91441015 -25.4375 81.125 C-37.8592088 80.97164557 -48.82893591 75.53223309 -57.6875 66.875 C-66.48598149 55.77741782 -69.62998131 43.88774105 -68.6875 29.875 C-66.86345504 18.83032409 -60.68879852 8.61115773 -52.08203125 1.55859375 C-35.46464464 -10.12508264 -17.14603121 -9.93530302 0 0 Z M-52.62890625 13.0625 C-58.9438449 21.28905891 -61.44063434 30.74795238 -61.09765625 41.08203125 C-59.76229021 50.17523808 -55.32357359 57.66929939 -48.6875 63.875 C-47.79417969 64.72384766 -47.79417969 64.72384766 -46.8828125 65.58984375 C-39.57971815 71.78686779 -29.89364594 73.5975705 -20.48046875 73.28515625 C-8.97562574 71.59563385 -0.4654488 64.97100729 6.3125 55.875 C11.41579013 46.863664 12.98890307 37.68115168 10.80078125 27.4921875 C8.35926504 20.29465416 3.92890603 13.92976543 -1.6875 8.875 C-2.38875 8.194375 -3.09 7.51375 -3.8125 6.8125 C-19.46029283 -3.73275169 -40.18675347 -0.95682707 -52.62890625 13.0625 Z " fill="#ACACAC" transform="translate(74.6875,11.125)"/>
<path d="M0 0 C1.875 1.0625 1.875 1.0625 3 3 C2.74307232 9.97511075 -0.30922997 15.86789125 -3.1875 22.125 C-3.89229492 23.73181641 -3.89229492 23.73181641 -4.61132812 25.37109375 C-9.63641651 36.38104183 -16.31822242 39.97337558 -27.0625 44.8125 C-28.67608398 45.56563477 -28.67608398 45.56563477 -30.32226562 46.33398438 C-31.88170898 47.04458008 -31.88170898 47.04458008 -33.47265625 47.76953125 C-34.41375244 48.19854736 -35.35484863 48.62756348 -36.32446289 49.06958008 C-39.10205087 50.03548826 -41.08433576 50.26414884 -44 50 C-45.875 48.9375 -45.875 48.9375 -47 47 C-46.74307232 40.02488925 -43.69077003 34.13210875 -40.8125 27.875 C-40.34263672 26.80378906 -39.87277344 25.73257813 -39.38867188 24.62890625 C-34.36358349 13.61895817 -27.68177758 10.02662442 -16.9375 5.1875 C-15.86177734 4.68541016 -14.78605469 4.18332031 -13.67773438 3.66601562 C-12.11829102 2.95541992 -12.11829102 2.95541992 -10.52734375 2.23046875 C-9.58624756 1.80145264 -8.64515137 1.37243652 -7.67553711 0.93041992 C-4.89794913 -0.03548826 -2.91566424 -0.26414884 0 0 Z " fill="#ABABAB" transform="translate(71,22)"/>
<path d="M0 0 C-1.63958758 5.23272633 -3.38952035 10.15196636 -6 15 C-9.81936528 13.44396229 -12.26044438 11.04395069 -15 8 C-15 7.34 -15 6.68 -15 6 C-12.87717331 4.99539469 -10.75166979 3.99644398 -8.625 3 C-7.44164062 2.443125 -6.25828125 1.88625 -5.0390625 1.3125 C-2 0 -2 0 0 0 Z " fill="#F9F9F9" transform="translate(63,33)"/>
<path d="M0 0 C3.92600963 1.96300481 6.09649559 3.77388399 9 7 C9 7.66 9 8.32 9 9 C6.87959258 10.03033882 4.75352092 11.04902854 2.625 12.0625 C1.44164062 12.63097656 0.25828125 13.19945312 -0.9609375 13.78515625 C-1.96382812 14.18605469 -2.96671875 14.58695313 -4 15 C-4.66 14.67 -5.32 14.34 -6 14 C-4.02 9.38 -2.04 4.76 0 0 Z " fill="#FAFAFA" transform="translate(41,46)"/>
</svg>
