<svg width="96" height="96" viewBox="0 0 96 96" fill="none" xmlns="http://www.w3.org/2000/svg">
<path d="M27.87 70.33L55.37 57.46C55.81 57.24 56.2133 56.9467 56.58 56.58C56.9467 56.2133 57.24 55.81 57.46 55.37L70.33 27.87C70.6967 27.1367 70.6043 26.4957 70.0528 25.9472C69.5043 25.3957 68.8633 25.3033 68.13 25.67L40.63 38.54C40.19 38.76 39.7867 39.0533 39.42 39.42C39.0533 39.7867 38.76 40.19 38.54 40.63L25.67 68.13C25.3033 68.8633 25.3957 69.5043 25.9472 70.0528C26.4957 70.6043 27.1367 70.6967 27.87 70.33ZM48 52.4C46.7533 52.4 45.7091 51.9776 44.8672 51.1328C44.0224 50.2909 43.6 49.2467 43.6 48C43.6 46.7533 44.0224 45.7076 44.8672 44.8628C45.7091 44.0209 46.7533 43.6 48 43.6C49.2467 43.6 50.2924 44.0209 51.1372 44.8628C51.9791 45.7076 52.4 46.7533 52.4 48C52.4 49.2467 51.9791 50.2909 51.1372 51.1328C50.2924 51.9776 49.2467 52.4 48 52.4ZM48 92C41.9133 92 36.1933 90.8443 30.84 88.5328C25.4867 86.2243 20.83 83.09 16.87 79.13C12.91 75.17 9.77573 70.5133 7.4672 65.16C5.15573 59.8067 4 54.0867 4 48C4 41.9133 5.15573 36.1933 7.4672 30.84C9.77573 25.4867 12.91 20.83 16.87 16.87C20.83 12.91 25.4867 9.77427 30.84 7.4628C36.1933 5.15427 41.9133 4 48 4C54.0867 4 59.8067 5.15427 65.16 7.4628C70.5133 9.77427 75.17 12.91 79.13 16.87C83.09 20.83 86.2243 25.4867 88.5328 30.84C90.8443 36.1933 92 41.9133 92 48C92 54.0867 90.8443 59.8067 88.5328 65.16C86.2243 70.5133 83.09 75.17 79.13 79.13C75.17 83.09 70.5133 86.2243 65.16 88.5328C59.8067 90.8443 54.0867 92 48 92ZM48 83.2C57.7533 83.2 66.0591 79.7724 72.9172 72.9172C79.7724 66.0591 83.2 57.7533 83.2 48C83.2 38.2467 79.7724 29.9409 72.9172 23.0828C66.0591 16.2276 57.7533 12.8 48 12.8C38.2467 12.8 29.9424 16.2276 23.0872 23.0828C16.2291 29.9409 12.8 38.2467 12.8 48C12.8 57.7533 16.2291 66.0591 23.0872 72.9172C29.9424 79.7724 38.2467 83.2 48 83.2Z" fill="#ACACAC"/>
</svg>
