<svg width="14" height="14" viewBox="0 0 14 14" fill="none" xmlns="http://www.w3.org/2000/svg">
<path d="M10.115 3.18502C9.97654 3.18502 9.84121 3.22607 9.72609 3.30299C9.61098 3.37991 9.52126 3.48923 9.46827 3.61714C9.41529 3.74505 9.40143 3.8858 9.42844 4.02158C9.45545 4.15737 9.52212 4.2821 9.62002 4.38C9.71791 4.47789 9.84264 4.54456 9.97843 4.57157C10.1142 4.59858 10.255 4.58472 10.3829 4.53174C10.5108 4.47875 10.6201 4.38903 10.697 4.27392C10.7739 4.15881 10.815 4.02347 10.815 3.88502C10.815 3.69937 10.7412 3.52132 10.61 3.39005C10.4787 3.25877 10.3006 3.18502 10.115 3.18502ZM12.7983 4.59669C12.787 4.11269 12.6963 3.63384 12.53 3.17919C12.3817 2.79018 12.1508 2.43793 11.8533 2.14669C11.5645 1.84769 11.2114 1.61829 10.8208 1.47585C10.3674 1.30445 9.88799 1.21173 9.40332 1.20169C8.78499 1.16669 8.58666 1.16669 6.99999 1.16669C5.41332 1.16669 5.21499 1.16669 4.59666 1.20169C4.112 1.21173 3.63261 1.30445 3.17916 1.47585C2.7893 1.61973 2.43653 1.84893 2.14666 2.14669C1.84766 2.43554 1.61826 2.78861 1.47582 3.17919C1.30442 3.63264 1.2117 4.11203 1.20166 4.59669C1.16666 5.21502 1.16666 5.41335 1.16666 7.00002C1.16666 8.58669 1.16666 8.78502 1.20166 9.40335C1.2117 9.88802 1.30442 10.3674 1.47582 10.8209C1.61826 11.2114 1.84766 11.5645 2.14666 11.8534C2.43653 12.1511 2.7893 12.3803 3.17916 12.5242C3.63261 12.6956 4.112 12.7883 4.59666 12.7984C5.21499 12.8334 5.41332 12.8334 6.99999 12.8334C8.58666 12.8334 8.78499 12.8334 9.40332 12.7984C9.88799 12.7883 10.3674 12.6956 10.8208 12.5242C11.2114 12.3818 11.5645 12.1524 11.8533 11.8534C12.1521 11.5632 12.3832 11.2106 12.53 10.8209C12.6963 10.3662 12.787 9.88735 12.7983 9.40335C12.7983 8.78502 12.8333 8.58669 12.8333 7.00002C12.8333 5.41335 12.8333 5.21502 12.7983 4.59669ZM11.7483 9.33335C11.7441 9.70364 11.677 10.0705 11.55 10.4184C11.4569 10.6722 11.3073 10.9016 11.1125 11.0892C10.9233 11.282 10.6944 11.4313 10.4417 11.5267C10.0938 11.6537 9.72694 11.7208 9.35666 11.725C8.77332 11.7542 8.55749 11.76 7.02332 11.76C5.48916 11.76 5.27332 11.76 4.68999 11.725C4.30551 11.7322 3.92267 11.673 3.55832 11.55C3.3167 11.4497 3.09828 11.3008 2.91666 11.1125C2.72304 10.9251 2.57532 10.6955 2.48499 10.4417C2.34257 10.0889 2.26358 9.71365 2.25166 9.33335C2.25166 8.75002 2.21666 8.53419 2.21666 7.00002C2.21666 5.46585 2.21666 5.25002 2.25166 4.66669C2.25427 4.28814 2.32338 3.91299 2.45582 3.55835C2.55852 3.31214 2.71614 3.09265 2.91666 2.91669C3.09388 2.71612 3.31291 2.55683 3.55832 2.45002C3.91389 2.32171 4.28866 2.25465 4.66666 2.25169C5.24999 2.25169 5.46582 2.21669 6.99999 2.21669C8.53416 2.21669 8.74999 2.21669 9.33332 2.25169C9.70361 2.25593 10.0705 2.323 10.4183 2.45002C10.6834 2.5484 10.9213 2.70835 11.1125 2.91669C11.3036 3.09587 11.453 3.31495 11.55 3.55835C11.6796 3.91357 11.7467 4.28856 11.7483 4.66669C11.7775 5.25002 11.7833 5.46585 11.7833 7.00002C11.7833 8.53419 11.7775 8.75002 11.7483 9.33335ZM6.99999 4.00752C6.40838 4.00867 5.83038 4.18516 5.33904 4.51468C4.84769 4.8442 4.46504 5.31197 4.23944 5.85888C4.01384 6.40579 3.95541 7.00729 4.07154 7.5874C4.18766 8.1675 4.47313 8.70017 4.89187 9.11809C5.31061 9.53602 5.84383 9.82045 6.42416 9.93544C7.00449 10.0504 7.60588 9.99083 8.15235 9.76417C8.69882 9.5375 9.16584 9.15394 9.4944 8.66196C9.82296 8.16997 9.99832 7.59163 9.99832 7.00002C9.99909 6.60633 9.92203 6.21637 9.77155 5.85258C9.62107 5.48878 9.40015 5.15833 9.1215 4.88022C8.84285 4.60211 8.51196 4.38183 8.14787 4.23206C7.78378 4.08229 7.39368 4.00598 6.99999 4.00752ZM6.99999 8.94252C6.6158 8.94252 6.24024 8.8286 5.92079 8.61515C5.60135 8.40171 5.35238 8.09833 5.20535 7.74338C5.05833 7.38844 5.01986 6.99787 5.09481 6.62106C5.16977 6.24425 5.35477 5.89813 5.62644 5.62647C5.8981 5.3548 6.24422 5.1698 6.62103 5.09485C6.99784 5.01989 7.38841 5.05836 7.74335 5.20538C8.0983 5.35241 8.40168 5.60138 8.61512 5.92083C8.82856 6.24027 8.94249 6.61583 8.94249 7.00002C8.94249 7.25511 8.89225 7.50771 8.79463 7.74338C8.69701 7.97906 8.55392 8.1932 8.37355 8.37358C8.19317 8.55395 7.97903 8.69704 7.74335 8.79466C7.50768 8.89228 7.25508 8.94252 6.99999 8.94252Z" fill="#1F1F1F"/>
</svg>
