<svg width="14" height="14" viewBox="0 0 14 14" fill="none" xmlns="http://www.w3.org/2000/svg">
<path d="M7.83125 12.075L4.24375 8.34167C4.19514 8.29306 4.15625 8.23229 4.12708 8.15938C4.09792 8.08646 4.08333 8.01111 4.08333 7.93333V7.58333C4.08333 7.41806 4.13924 7.27951 4.25104 7.16771C4.36285 7.0559 4.50139 7 4.66667 7H6.125C6.64028 7 7.08507 6.83229 7.45937 6.49687C7.83368 6.16146 8.05972 5.74583 8.1375 5.25H4.08333C3.91806 5.25 3.77951 5.1941 3.66771 5.08229C3.5559 4.97049 3.5 4.83194 3.5 4.66667C3.5 4.50139 3.5559 4.36285 3.66771 4.25104C3.77951 4.13924 3.91806 4.08333 4.08333 4.08333H7.9625C7.79722 3.74306 7.55174 3.46354 7.22604 3.24479C6.90035 3.02604 6.53333 2.91667 6.125 2.91667H4.08333C3.91806 2.91667 3.77951 2.86076 3.66771 2.74896C3.5559 2.63715 3.5 2.49861 3.5 2.33333C3.5 2.16806 3.5559 2.02951 3.66771 1.91771C3.77951 1.8059 3.91806 1.75 4.08333 1.75H9.91667C10.0819 1.75 10.2205 1.8059 10.3323 1.91771C10.4441 2.02951 10.5 2.16806 10.5 2.33333C10.5 2.49861 10.4441 2.63715 10.3323 2.74896C10.2205 2.86076 10.0819 2.91667 9.91667 2.91667H8.60417C8.74028 3.08194 8.86181 3.26181 8.96875 3.45625C9.07569 3.65069 9.15833 3.85972 9.21667 4.08333H9.91667C10.0819 4.08333 10.2205 4.13924 10.3323 4.25104C10.4441 4.36285 10.5 4.50139 10.5 4.66667C10.5 4.83194 10.4441 4.97049 10.3323 5.08229C10.2205 5.1941 10.0819 5.25 9.91667 5.25H9.31875C9.24097 6.07639 8.90069 6.7691 8.29792 7.32812C7.69514 7.88715 6.97083 8.16667 6.125 8.16667H5.70208L8.67708 11.2583C8.85208 11.4431 8.88854 11.6545 8.78646 11.8927C8.68437 12.1309 8.50694 12.25 8.25417 12.25C8.17639 12.25 8.10104 12.2354 8.02812 12.2063C7.95521 12.1771 7.88958 12.1333 7.83125 12.075Z" fill="#1F1F1F"/>
</svg>
