<svg width="16" height="16" viewBox="0 0 16 16" fill="none" xmlns="http://www.w3.org/2000/svg">
<mask id="mask0_1523_127" style="mask-type:alpha" maskUnits="userSpaceOnUse" x="0" y="0" width="16" height="16">
<rect width="16" height="16" fill="#D9D9D9"/>
</mask>
<g mask="url(#mask0_1523_127)">
<path d="M12.0008 14.5C11.4917 14.5 11.0587 14.3218 10.702 13.9653C10.3451 13.6088 10.1666 13.1759 10.1666 12.6667C10.1666 12.5834 10.1732 12.4973 10.1865 12.4082C10.1998 12.3189 10.2197 12.2367 10.2461 12.1615L5.31529 9.27433C5.13929 9.44956 4.9389 9.5865 4.71413 9.68517C4.48935 9.78395 4.25129 9.83333 3.99996 9.83333C3.49074 9.83333 3.05785 9.65517 2.70129 9.29883C2.34485 8.9425 2.16663 8.50983 2.16663 8.00083C2.16663 7.49172 2.34485 7.05878 2.70129 6.702C3.05785 6.34511 3.49074 6.16667 3.99996 6.16667C4.25129 6.16667 4.48935 6.21606 4.71413 6.31483C4.9389 6.4135 5.13929 6.55044 5.31529 6.72567L10.2461 3.8385C10.2197 3.76328 10.1998 3.68106 10.1865 3.59183C10.1732 3.50272 10.1666 3.41656 10.1666 3.33333C10.1666 2.82411 10.3448 2.39122 10.7011 2.03467C11.0575 1.67822 11.4901 1.5 11.9991 1.5C12.5082 1.5 12.9412 1.67817 13.298 2.0345C13.6548 2.39083 13.8333 2.8235 13.8333 3.3325C13.8333 3.84161 13.6551 4.27456 13.2986 4.63133C12.9421 4.98822 12.5092 5.16667 12 5.16667C11.7486 5.16667 11.5106 5.11728 11.2858 5.0185C11.061 4.91983 10.8606 4.78289 10.6846 4.60767L5.75379 7.49483C5.78024 7.57006 5.80013 7.65211 5.81346 7.741C5.82668 7.82989 5.83329 7.91578 5.83329 7.99867C5.83329 8.08156 5.82668 8.16789 5.81346 8.25767C5.80013 8.34745 5.78024 8.42994 5.75379 8.50517L10.6846 11.3923C10.8606 11.2171 11.061 11.0802 11.2858 10.9815C11.5106 10.8827 11.7486 10.8333 12 10.8333C12.5092 10.8333 12.9421 11.0115 13.2986 11.3678C13.6551 11.7242 13.8333 12.1568 13.8333 12.6658C13.8333 13.1749 13.6551 13.6079 13.2988 13.9647C12.9425 14.3216 12.5098 14.5 12.0008 14.5ZM12 4.16667C12.2316 4.16667 12.4284 4.08567 12.5903 3.92367C12.7523 3.76178 12.8333 3.565 12.8333 3.33333C12.8333 3.10167 12.7523 2.90489 12.5903 2.743C12.4284 2.581 12.2316 2.5 12 2.5C11.7683 2.5 11.5715 2.581 11.4096 2.743C11.2476 2.90489 11.1666 3.10167 11.1666 3.33333C11.1666 3.565 11.2476 3.76178 11.4096 3.92367C11.5715 4.08567 11.7683 4.16667 12 4.16667ZM3.99996 8.83333C4.23163 8.83333 4.4284 8.75233 4.59029 8.59033C4.75229 8.42845 4.83329 8.23167 4.83329 8C4.83329 7.76833 4.75229 7.57156 4.59029 7.40967C4.4284 7.24767 4.23163 7.16667 3.99996 7.16667C3.76829 7.16667 3.57151 7.24767 3.40963 7.40967C3.24763 7.57156 3.16663 7.76833 3.16663 8C3.16663 8.23167 3.24763 8.42845 3.40963 8.59033C3.57151 8.75233 3.76829 8.83333 3.99996 8.83333ZM12 13.5C12.2316 13.5 12.4284 13.419 12.5903 13.257C12.7523 13.0951 12.8333 12.8983 12.8333 12.6667C12.8333 12.435 12.7523 12.2382 12.5903 12.0763C12.4284 11.9143 12.2316 11.8333 12 11.8333C11.7683 11.8333 11.5715 11.9143 11.4096 12.0763C11.2476 12.2382 11.1666 12.435 11.1666 12.6667C11.1666 12.8983 11.2476 13.0951 11.4096 13.257C11.5715 13.419 11.7683 13.5 12 13.5Z" fill="white"/>
</g>
</svg>
