<svg width="16" height="16" viewBox="0 0 16 16" fill="none" xmlns="http://www.w3.org/2000/svg">
<path d="M5.9 11.2167L8 9.95L10.1 11.2333L9.55 8.83333L11.4 7.23333L8.96667 7.01666L8 4.74999L7.03334 7L4.6 7.21666L6.45 8.83333L5.9 11.2167ZM3.88334 14L4.96667 9.31666L1.33334 6.16666L6.13334 5.75L8 1.33333L9.86667 5.75L14.6667 6.16666L11.0333 9.31666L12.1167 14L8 11.5167L3.88334 14Z" fill="#E8EAED"/>
<path d="M5.9 11.2167L8 9.95L10.1 11.2333L9.55 8.83333L11.4 7.23333L8.96667 7.01666L8 4.74999L7.03334 7L4.6 7.21666L6.45 8.83333L5.9 11.2167ZM3.88334 14L4.96667 9.31666L1.33334 6.16666L6.13334 5.75L8 1.33333L9.86667 5.75L14.6667 6.16666L11.0333 9.31666L12.1167 14L8 11.5167L3.88334 14Z" fill="url(#paint0_linear_7_282)"/>
<defs>
<linearGradient id="paint0_linear_7_282" x1="-3.78149" y1="10.1226" x2="17.5245" y2="10.0286" gradientUnits="userSpaceOnUse">
<stop stop-color="#FFAA04"/>
<stop offset="1" stop-color="#FB9B2A"/>
</linearGradient>
</defs>
</svg>
